<svg xmlns="http://www.w3.org/2000/svg" viewBox="0 0 1451 654"><path d="M 46 568 L 54 518 L 72 484 L 113 442 L 148 417 L 208 385 L 261 364 L 401 321 L 423 319 L 428 324 L 431 322 L 465 282 L 469 262 L 501 209 L 579 102 L 645 42 L 683 25 L 640 45 L 571 112 L 523 176 L 484 237 L 468 265 L 465 282 L 427 326 L 424 343 L 414 359 L 411 382 L 433 377 L 473 345 L 495 333 L 528 328 L 535 337 L 530 372 L 473 472 L 468 502 L 471 512 L 482 521 L 524 512 L 551 495 L 589 462 L 614 455 L 622 408 L 636 378 L 665 340 L 694 318 L 665 340 L 646 363 L 626 397 L 615 446 L 616 466 L 623 480 L 645 494 L 687 488 L 722 468 L 769 427 L 783 422 L 795 423 L 801 390 L 815 363 L 824 324 L 883 209 L 927 140 L 958 99 L 995 61 L 1022 44 L 1035 43 L 1017 46 L 992 63 L 935 129 L 894 191 L 842 286 L 818 340 L 815 363 L 805 379 L 798 402 L 796 448 L 802 463 L 813 474 L 827 479 L 867 470 L 904 446 L 943 410 L 960 404 L 968 405 L 976 366 L 989 345 L 993 319 L 1043 222 L 1087 155 L 1118 117 L 1158 79 L 1174 69 L 1190 66 L 1176 68 L 1147 88 L 1095 145 L 1027 250 L 994 317 L 989 345 L 978 362 L 970 387 L 967 417 L 974 446 L 993 460 L 1025 455 L 1046 444 L 1083 411 L 1105 407 L 1113 372 L 1127 346 L 1138 334 L 1155 330 L 1160 303 L 1180 285 L 1205 288 L 1219 306 L 1222 334 L 1217 374 L 1245 371 L 1273 361 L 1324 333 L 1342 316"/></svg>