<svg xmlns="http://www.w3.org/2000/svg" viewBox="0 0 1910 467" role="img" aria-labelledby="title desc">
  <title id="title">XinXiang Store APP</title>
  <desc id="desc">Vector outlines traced from the supplied metallic lettering artwork.</desc>
  <defs>
    <linearGradient id="metal" x1="0" y1="0" x2="0" y2="1">
      <stop offset="0" stop-color="#f8f8f8"/>
      <stop offset=".17" stop-color="#dddddc"/>
      <stop offset=".35" stop-color="#9c9895"/>
      <stop offset=".53" stop-color="#665d58"/>
      <stop offset=".69" stop-color="#3a2f2a"/>
      <stop offset=".84" stop-color="#211714"/>
      <stop offset="1" stop-color="#0b0807"/>
    </linearGradient>
  </defs>
  <path d="M698.48 158.4L697.52 72.6Q697.5 71 697.64 69.41L698.86 56.09Q699 54.5 700.6 54.5L729.4 54.5Q731 54.5 731.06 56.1L731.48 67.41Q731.5 68 731.92 68.42L732.58 69.08Q733 69.5 733.45 69.11L745.79 58.54Q747 57.5 748.5 56.94L761.5 52.06Q763 51.5 764.6 51.5L776.4 51.5Q778 51.5 779.56 51.85L785.44 53.15Q787 53.5 788.46 54.15L794.54 56.85Q796 57.5 797.27 58.47L803.23 63.03Q804.5 64 805.42 65.31L810.58 72.69Q811.5 74 811.97 75.53L815.03 85.47Q815.5 87 815.49 88.6L815.01 180.9Q815 182.5 813.4 182.55L783.59 183.48Q783 183.5 782.58 183.08L781.92 182.42Q781.5 182 781.5 181.41L781.5 101.6Q781.5 100 780.93 98.51L777 88.29Q776.5 87 775.52 86.02L773.98 84.48Q773 83.5 771.7 83.01L766.5 81.06Q765 80.5 763.4 80.6L750.6 81.4Q749 81.5 747.66 82.37L741.84 86.13Q740.5 87 739.66 88.36L733.34 98.64Q732.5 100 732.48 101.6L731.51 181.41Q731.5 182 731.08 182.42L730.42 183.08Q730 183.5 729.41 183.5L700.99 183.5Q700 183.5 699.3 182.8L698.2 181.7Q697.5 181 697.55 180.01L698.42 161.6Q698.5 160 698.48 158.4ZM747.48 345.24L726.52 370.76Q725.5 372 724.67 373.36L694.83 422.14Q694 423.5 692.4 423.53L641.59 424.49Q641 424.5 640.58 424.08L639.92 423.42Q639.5 423 639.8 422.49L688.2 338.51Q688.5 338 688.08 337.58L687.42 336.92Q687 336.5 686.41 336.58L681.58 337.27Q680 337.5 678.45 337.11L669.55 334.89Q668 334.5 666.59 333.74L656.41 328.26Q655 327.5 653.82 326.42L644.6 318.05Q644 317.5 643.58 318.2L642.92 319.3Q642.5 320 642.55 320.81L643.41 335.4Q643.5 337 643.11 338.55L640.89 347.45Q640.5 349 639.85 350.46L633.15 365.54Q632.5 367 631.55 368.29L619.45 384.71Q618.5 386 617.34 387.1L601.16 402.4Q600 403.5 598.67 404.39L589.33 410.61Q588 411.5 586.56 412.19L568.44 420.81Q567 421.5 565.47 421.96L548.53 427.04Q547 427.5 545.42 427.74L528.58 430.26Q527 430.5 525.4 430.5L510.6 430.5Q509 430.5 507.41 430.29L495.59 428.71Q494 428.5 492.51 427.92L472.49 420.08Q471 419.5 469.67 418.61L463.33 414.39Q462 413.5 460.91 412.33L449.59 400.17Q448.5 399 447.93 397.51L444.07 387.49Q443.5 386 443.31 384.41L442.19 375.09Q442 373.5 440.82 374.58L409.18 403.42Q408 404.5 406.67 405.39L394.33 413.61Q393 414.5 391.53 415.14L364.47 426.86Q363 427.5 361.4 427.62L337.6 429.38Q336 429.5 334.45 429.11L321.55 425.89Q320 425.5 318.71 424.55L309.79 417.95Q308.5 417 307.82 415.55L301.18 401.45Q300.5 400 300.5 398.4L300.5 380.6Q300.5 379 300.97 377.47L304.03 367.53Q304.5 366 305.3 364.61L351.01 284.86Q351.5 284 351.36 283.02L351.14 281.48Q351 280.5 350.01 280.53L317.82 281.48Q317 281.5 316.58 280.8L315.81 279.51Q315.5 279 315.92 278.58L316.58 277.92Q317 277.5 317.59 277.5L353.4 277.5Q355 277.5 355.81 276.12L394.19 210.88Q395 209.5 396.6 209.45L452.73 207.54Q454 207.5 453.86 208.76L453.64 210.74Q453.5 212 452.82 213.07L416.26 270.79Q415.5 272 415.22 273.4L414.78 275.6Q414.5 277 415.93 277.01L461.4 277.48Q463 277.5 464.55 277.11L470.31 275.67Q471 275.5 471.14 276.2L471.36 277.3Q471.5 278 470.9 278.38L467.35 280.64Q466 281.5 464.4 281.47L412.99 280.52Q412 280.5 411.3 281.2L410.2 282.3Q409.5 283 408.99 283.85L368.32 351.63Q367.5 353 366.8 354.44L353.2 382.56Q352.5 384 352.03 385.53L348.97 395.47Q348.5 397 348.5 398.6L348.5 405.49Q348.5 407 349.06 408.4L349.94 410.6Q350.5 412 351.72 412.89L356.71 416.55Q358 417.5 359.59 417.63L368.41 418.37Q370 418.5 371.56 418.15L377.44 416.85Q379 416.5 380.42 415.76L398.58 406.24Q400 405.5 401.28 404.54L414.72 394.46Q416 393.5 417.15 392.39L441.35 369.11Q442.5 368 442.5 366.4L442.5 356.6Q442.5 355 442.89 353.45L446.11 340.55Q446.5 339 447.25 337.59L454.75 323.41Q455.5 322 456.5 320.75L462.5 313.25Q463.5 312 464.66 310.9L479.84 296.6Q481 295.5 482.32 294.59L495.68 285.41Q497 284.5 498.46 283.86L520.54 274.14Q522 273.5 523.54 273.07L538.46 268.93Q540 268.5 541.59 268.35L570.41 265.65Q572 265.5 573.57 265.81L600.43 271.19Q602 271.5 603.38 272.3L619.62 281.7Q621 282.5 622.13 283.63L631.37 292.87Q632.5 294 633.34 295.36L639.66 305.64Q640.5 307 641.59 308.17L652.91 320.33Q654 321.5 655.33 322.39L664.67 328.61Q666 329.5 667.53 329.97L677.47 333.03Q679 333.5 680.6 333.5L684.4 333.5Q686 333.5 687.34 332.63L693.16 328.87Q694.5 328 695.28 326.6L724.22 274.9Q725 273.5 726.6 273.42L785.29 270.54Q786 270.5 786.14 271.2L786.36 272.3Q786.5 273 786.1 273.59L729.4 356.68Q728.5 358 727.93 359.49L726.57 363.01Q726 364.5 727.04 363.29L767.96 315.71Q769 314.5 770.22 313.46L787.78 298.54Q789 297.5 790.35 296.63L801.65 289.37Q803 288.5 804.17 287.41L816.83 275.59Q818 274.5 819.45 273.83L829.55 269.17Q831 268.5 832.58 268.22L846.42 265.78Q848 265.5 849.6 265.45L880.41 264.52Q881 264.5 881.42 264.92L882.08 265.58Q882.5 266 882.05 266.39L875.7 271.95Q874.5 273 873.53 274.27L862.47 288.73Q861.5 290 860.78 291.43L855.22 302.57Q854.5 304 854.08 305.54L851.92 313.46Q851.5 315 851.5 316.6L851.5 322.4Q851.5 324 851.96 325.53L854.04 332.47Q854.5 334 855.53 335.22L858.97 339.28Q860 340.5 861.49 341.09L868.51 343.91Q870 344.5 871.45 343.82L876.05 341.68Q877.5 341 878.3 339.62L887.7 323.38Q888.5 322 889.56 320.8L902.94 305.7Q904 304.5 905.31 303.58L929.69 286.42Q931 285.5 932.47 284.86L961.53 272.14Q963 271.5 964.57 271.19L986.43 266.81Q988 266.5 989.6 266.5L1008.4 266.5Q1010 266.5 1011.59 266.68L1017.41 267.32Q1019 267.5 1020.5 268.05L1028.5 270.95Q1030 271.5 1031.27 272.47L1041.23 280.03Q1042.5 281 1043.09 282.49L1045.91 289.51Q1046.5 291 1046.5 292.6L1046.5 299.4Q1046.5 301 1045.99 302.52L1045.01 305.48Q1044.5 307 1043.5 308.25L1033 321.25Q1032 322.5 1030.63 323.32L1013.37 333.68Q1012 334.5 1010.5 335.06L986.5 343.94Q985 344.5 983.46 344.92L964.54 350.08Q963 350.5 961.41 350.64L953.59 351.36Q952 351.5 950.48 352.01L938.52 355.99Q937 356.5 935.41 356.66L927.99 357.4Q927 357.5 926.3 358.2L925.2 359.3Q924.5 360 924.46 360.99L923.56 384.4Q923.5 386 923.85 387.56L925.15 393.44Q925.5 395 926.27 396.4L930.73 404.6Q931.5 406 932.7 407.06L938.8 412.44Q940 413.5 941.53 413.98L954.47 418.02Q956 418.5 957.59 418.3L970.41 416.7Q972 416.5 973.51 415.97L987.49 411.03Q989 410.5 990.4 409.73L1007.6 400.27Q1009 399.5 1010.26 398.51L1040.74 374.49Q1042 373.5 1043.13 372.37L1061.37 354.13Q1062.5 353 1063.52 351.76L1089.48 320.24Q1090.5 319 1091.63 317.87L1094.42 315.08Q1095 314.5 1095.42 315.2L1096.08 316.3Q1096.5 317 1095.98 317.63L1062.52 357.77Q1061.5 359 1060.32 360.08L1024.18 393.42Q1023 394.5 1021.66 395.38L998.34 410.62Q997 411.5 995.57 412.22L982.43 418.78Q981 419.5 979.47 419.97L956.53 427.03Q955 427.5 953.4 427.5L948.51 427.5Q947 427.5 945.6 428.06L943.4 428.94Q942 429.5 940.49 429.5L920.6 429.5Q919 429.5 917.42 429.26L907.58 427.74Q906 427.5 904.51 426.93L894.49 423.07Q893 422.5 891.67 421.61L885.33 417.39Q884 416.5 882.97 415.27L874.53 405.23Q873.5 404 873.02 402.47L867.98 386.53Q867.5 385 867.5 383.4L867.5 373.6Q867.5 372 867.9 370.45L873.1 350.55Q873.5 349 871.93 349.3L851.57 353.2Q850 353.5 848.4 353.5L834.6 353.5Q833 353.5 831.45 353.11L822.55 350.89Q821 350.5 819.6 349.73L811.4 345.27Q810 344.5 808.93 343.31L801.57 335.19Q800.5 334 799.95 332.5L797.05 324.5Q796.5 323 796.5 321.4L796.5 312.6Q796.5 311 796.95 309.46L800.55 297.04Q801 295.5 799.68 296.4L780.32 309.6Q779 310.5 777.92 311.68L749.58 342.82Q748.5 344 747.48 345.24ZM1767.12 220.94L1768.88 220.06Q1770 219.5 1771.25 219.4L1781.99 218.58Q1783 218.5 1783.84 217.94L1785.16 217.06Q1786 216.5 1787.01 216.5L1798.4 216.5Q1800 216.5 1801.55 216.11L1806.45 214.89Q1808 214.5 1809.6 214.6L1839.4 216.4Q1841 216.5 1842.54 216.92L1861.46 222.08Q1863 222.5 1864.39 223.29L1882.61 233.71Q1884 234.5 1885.08 235.68L1893.42 244.82Q1894.5 246 1895.28 247.4L1898.72 253.6Q1899.5 255 1899.89 256.55L1902.11 265.45Q1902.5 267 1902.5 268.6L1902.5 280.4Q1902.5 282 1902.04 283.53L1896.96 300.47Q1896.5 302 1895.64 303.35L1883.36 322.65Q1882.5 324 1881.31 325.07L1862.19 342.43Q1861 343.5 1859.56 344.2L1829.44 358.8Q1828 359.5 1826.43 359.8L1803.57 364.2Q1802 364.5 1800.4 364.5L1779.6 364.5Q1778 364.5 1776.43 364.21L1756.97 360.68Q1756 360.5 1755.3 359.8L1754.2 358.7Q1753.5 358 1753.89 357.09L1754.58 355.48Q1755 354.5 1756.01 354.84L1762.48 356.99Q1764 357.5 1765.6 357.5L1781.4 357.5Q1783 357.5 1784.54 357.08L1792.46 354.92Q1794 354.5 1795.39 353.71L1813.61 343.29Q1815 342.5 1816.18 341.42L1826.32 332.08Q1827.5 331 1828.46 329.72L1841.54 312.28Q1842.5 311 1843.25 309.59L1850.75 295.41Q1851.5 294 1851.98 292.47L1856.02 279.53Q1856.5 278 1856.5 276.4L1856.5 252.6Q1856.5 251 1855.87 249.53L1851.13 238.47Q1850.5 237 1849.37 235.87L1845.13 231.63Q1844 230.5 1842.62 229.69L1833.38 224.31Q1832 223.5 1830.43 223.17L1814.57 219.83Q1813 219.5 1811.4 219.56L1787.6 220.44Q1786 220.5 1784.43 220.83L1763.57 225.17Q1762 225.5 1760.48 226.01L1745.52 230.99Q1744 231.5 1742.57 232.22L1711.43 247.78Q1710 248.5 1708.79 249.54L1689.45 266.11Q1689 266.5 1688.58 266.08L1687.92 265.42Q1687.5 265 1687.77 264.47L1688.22 263.56Q1688.5 263 1688.98 262.6L1710.77 244.52Q1712 243.5 1713.43 242.78L1742.57 228.22Q1744 227.5 1745.54 227.08L1764.79 221.83Q1766 221.5 1767.12 220.94ZM1158.78 181.28L1159.22 181.72Q1159.5 182 1159.16 182.2L1157.7 183.08Q1157 183.5 1156.18 183.47L1128.6 182.55Q1127 182.5 1126.77 180.92L1125.7 173.37Q1125.5 172 1124.52 171.02L1122.98 169.48Q1122 168.5 1121.15 169.59L1115.98 176.24Q1115 177.5 1113.61 178.29L1109.39 180.71Q1108 181.5 1106.46 181.94L1095.54 185.06Q1094 185.5 1092.4 185.5L1076.6 185.5Q1075 185.5 1073.45 185.09L1057.55 180.91Q1056 180.5 1054.78 179.46L1043.72 170.04Q1042.5 169 1041.93 167.51L1038.07 157.49Q1037.5 156 1037.58 154.4L1038.42 138.6Q1038.5 137 1039.22 135.57L1042.78 128.43Q1043.5 127 1044.63 125.87L1048.87 121.63Q1050 120.5 1051.4 119.73L1059.6 115.27Q1061 114.5 1062.53 114.03L1072.47 110.97Q1074 110.5 1075.58 110.26L1093 107.65Q1094 107.5 1094.84 106.94L1096.16 106.06Q1097 105.5 1098.01 105.44L1111.4 104.6Q1113 104.5 1114.45 103.82L1119.05 101.68Q1120.5 101 1120.5 99.4L1120.5 91.6Q1120.5 90 1119.78 88.57L1118.22 85.43Q1117.5 84 1116.28 82.97L1112.22 79.53Q1111 78.5 1109.44 78.15L1103.56 76.85Q1102 76.5 1100.4 76.61L1089.6 77.39Q1088 77.5 1086.57 78.22L1081.43 80.78Q1080 81.5 1079.09 82.82L1076.41 86.68Q1075.5 88 1075.05 89.53L1073.45 94.97Q1073 96.5 1071.4 96.5L1044.6 96.5Q1043 96.5 1043.09 94.9L1043.41 89.6Q1043.5 88 1044.01 86.48L1046.99 77.52Q1047.5 76 1048.54 74.78L1057.96 63.72Q1059 62.5 1060.47 61.87L1078.53 54.13Q1080 53.5 1081.57 53.19L1088.43 51.81Q1090 51.5 1091.6 51.5L1106.4 51.5Q1108 51.5 1109.47 52.13L1113.53 53.87Q1115 54.5 1116.59 54.64L1124.41 55.36Q1126 55.5 1127.4 56.27L1135.6 60.73Q1137 61.5 1138.13 62.63L1144.37 68.87Q1145.5 70 1146.27 71.4L1150.73 79.6Q1151.5 81 1151.81 82.57L1153.19 89.43Q1153.5 91 1153.5 92.6L1153.5 157.4Q1153.5 159 1153.85 160.56L1158.41 180.61Q1158.5 181 1158.78 181.28ZM1390.25 247.51L1411.75 230.49Q1413 229.5 1414.38 228.69L1435.62 216.31Q1437 215.5 1438.49 214.92L1466.51 204.08Q1468 203.5 1469.6 203.5L1473.56 203.5Q1474 203.5 1474.14 203.92L1474.36 204.58Q1474.5 205 1474.17 205.29L1460.21 217.45Q1459 218.5 1457.88 219.65L1421.62 256.85Q1420.5 258 1419.48 259.24L1398.52 284.76Q1397.5 286 1396.61 287.33L1364.39 335.67Q1363.5 337 1362.75 338.41L1348.25 365.59Q1347.5 367 1346.95 368.5L1336.05 398.5Q1335.5 400 1335.6 401.6L1336.4 414.4Q1336.5 416 1337.41 417.32L1340.09 421.18Q1341 422.5 1342.43 423.22L1345.57 424.78Q1347 425.5 1348.6 425.5L1357.4 425.5Q1359 425.5 1360.4 424.72L1375.6 416.28Q1377 415.5 1378.25 414.5L1385.75 408.5Q1387 407.5 1388.11 406.35L1419.59 373.93Q1420 373.5 1420.42 373.92L1421.08 374.58Q1421.5 375 1421.09 375.43L1388.1 410.34Q1387 411.5 1385.73 412.47L1367.27 426.53Q1366 427.5 1364.53 428.12L1348.47 434.88Q1347 435.5 1345.41 435.67L1329.59 437.33Q1328 437.5 1326.42 437.27L1322.58 436.73Q1321 436.5 1319.54 435.84L1311.46 432.16Q1310 431.5 1308.92 430.32L1300.58 421.18Q1299.5 420 1298.99 418.48L1295.01 406.52Q1294.5 405 1294.56 403.4L1295.44 381.6Q1295.5 380 1296.07 378.51L1304.93 355.49Q1305.5 354 1306.36 352.65L1312.18 343.5Q1312.5 343 1312.08 342.58L1311.42 341.92Q1311 341.5 1310.41 341.5L1252.6 341.5Q1251 341.5 1249.88 342.64L1181.12 412.36Q1180 413.5 1178.68 414.4L1162.32 425.6Q1161 426.5 1159.52 427.11L1140.48 434.89Q1139 435.5 1137.42 435.73L1119.58 438.27Q1118 438.5 1116.41 438.35L1098.59 436.65Q1097 436.5 1095.53 435.86L1082.47 430.14Q1081 429.5 1079.92 428.32L1070.58 418.18Q1069.5 417 1068.94 415.5L1067.06 410.5Q1066.5 409 1066.5 407.4L1066.5 394.6Q1066.5 393 1067.01 391.48L1067.99 388.52Q1068.5 387 1069.58 385.82L1078.92 375.68Q1080 374.5 1081.5 373.95L1089.5 371.05Q1091 370.5 1092.6 370.5L1097.4 370.5Q1099 370.5 1100.47 371.13L1104.53 372.87Q1106 373.5 1107.13 374.63L1110.37 377.87Q1111.5 379 1112.13 380.47L1113.87 384.53Q1114.5 386 1114.5 387.6L1114.5 392.75Q1114.5 394 1113.94 395.12L1113.06 396.88Q1112.5 398 1111.61 398.89L1108.13 402.37Q1107 403.5 1105.41 403.68L1099.59 404.32Q1098 404.5 1096.97 405.72L1093.53 409.78Q1092.5 411 1092.5 412.6L1092.5 416.4Q1092.5 418 1093.37 419.34L1099.13 428.16Q1100 429.5 1101.49 430.07L1111.51 433.93Q1113 434.5 1114.6 434.5L1124.4 434.5Q1126 434.5 1127.54 434.07L1142.46 429.93Q1144 429.5 1145.45 428.83L1155.55 424.17Q1157 423.5 1158.35 422.63L1169.65 415.37Q1171 414.5 1172.22 413.46L1189.78 398.54Q1191 397.5 1192.09 396.33L1261.41 322.17Q1262.5 321 1263.67 319.9L1277.83 306.6Q1279 305.5 1280.26 304.51L1315.74 276.49Q1317 275.5 1318.34 274.63L1332.66 265.37Q1334 264.5 1335.43 263.78L1351.36 255.82Q1352 255.5 1352.7 255.64L1353.8 255.86Q1354.5 256 1354 256.5L1352.7 257.8Q1352 258.5 1351.14 258.99L1337.39 266.72Q1336 267.5 1334.7 268.44L1308.3 287.56Q1307 288.5 1305.82 289.59L1254.83 336.7Q1254.5 337 1254.64 337.42L1254.86 338.08Q1255 338.5 1255.44 338.5L1312.4 338.5Q1314 338.5 1314.95 337.21L1348.55 291.29Q1349.5 290 1350.6 288.84L1387.9 249.66Q1389 248.5 1390.25 247.51ZM1594.43 360.81L1577.57 364.19Q1576 364.5 1574.4 364.5L1555.6 364.5Q1554 364.5 1552.41 364.28L1533.59 361.72Q1532 361.5 1530.48 360.99L1527.01 359.84Q1526 359.5 1525.58 358.52L1524.89 356.91Q1524.5 356 1525.2 355.3L1526.3 354.2Q1527 353.5 1527.92 353.87L1535.51 356.91Q1537 357.5 1538.6 357.5L1554.4 357.5Q1556 357.5 1557.53 357.02L1570.47 352.98Q1572 352.5 1573.31 351.59L1593.69 337.41Q1595 336.5 1596.02 335.27L1613.48 314.23Q1614.5 313 1615.25 311.58L1623.75 295.42Q1624.5 294 1624.98 292.47L1630.02 276.53Q1630.5 275 1630.44 273.4L1629.56 250.6Q1629.5 249 1628.78 247.57L1624.22 238.43Q1623.5 237 1622.37 235.87L1616.13 229.63Q1615 228.5 1613.61 227.71L1609.39 225.29Q1608 224.5 1606.45 224.09L1590.55 219.91Q1589 219.5 1587.4 219.5L1569.6 219.5Q1568 219.5 1566.42 219.78L1541.58 224.22Q1540 224.5 1538.48 224.99L1519.52 231.01Q1518 231.5 1516.54 232.16L1497.46 240.84Q1496 241.5 1494.66 242.37L1480.34 251.63Q1479 252.5 1477.8 253.56L1462.74 266.85Q1462 267.5 1461.86 266.52L1461.64 264.98Q1461.5 264 1462.26 263.36L1484.77 244.53Q1486 243.5 1487.41 242.75L1501.59 235.25Q1503 234.5 1504.49 233.91L1531.51 223.09Q1533 222.5 1534.56 222.15L1558.44 216.85Q1560 216.5 1561.59 216.36L1580.41 214.64Q1582 214.5 1583.6 214.6L1612.4 216.4Q1614 216.5 1615.53 216.95L1639.47 224.05Q1641 224.5 1642.37 225.32L1654.63 232.68Q1656 233.5 1657.13 234.63L1666.37 243.87Q1667.5 245 1668.17 246.45L1672.83 256.55Q1673.5 258 1673.56 259.6L1674.44 282.4Q1674.5 284 1674.09 285.55L1669.91 301.45Q1669.5 303 1668.75 304.41L1662.25 316.59Q1661.5 318 1660.39 319.16L1641.11 339.34Q1640 340.5 1638.62 341.31L1619.38 352.69Q1618 353.5 1616.48 353.99L1597.52 360.01Q1596 360.5 1594.43 360.81ZM1426.52 416.26L1414.48 431.74Q1413.5 433 1412.32 434.08L1403.18 442.42Q1402 443.5 1400.63 444.32L1383.37 454.68Q1382 455.5 1380.45 455.91L1372.93 457.89Q1372.5 458 1372.64 458.42L1372.86 459.08Q1373 459.5 1373.44 459.48L1391.4 458.58Q1393 458.5 1394.54 458.06L1412.46 452.94Q1414 452.5 1415.44 451.81L1435.56 442.19Q1437 441.5 1438.29 440.55L1458.71 425.45Q1460 424.5 1461.13 423.37L1479.37 405.13Q1480.5 404 1481.5 402.75L1495.5 385.25Q1496.5 384 1497.38 382.66L1512.62 359.34Q1513.5 358 1514.3 356.61L1561.7 274.39Q1562.5 273 1563.5 271.75L1586 243.75Q1587 242.5 1585.41 242.69L1563.59 245.31Q1562 245.5 1560.49 246.03L1540.51 252.97Q1539 253.5 1537.57 254.22L1532.43 256.78Q1531 257.5 1529.83 258.6L1515.67 271.9Q1514.5 273 1513.63 274.34L1491.37 308.66Q1490.5 310 1489.71 311.39L1443.29 392.61Q1442.5 394 1441.57 395.3L1428.43 413.7Q1427.5 415 1426.52 416.26ZM986.6 271.5L994.4 271.5Q996 271.5 997.13 272.63L1001.37 276.87Q1002.5 278 1002.5 279.6L1002.5 292.4Q1002.5 294 1001.82 295.45L994.18 311.55Q993.5 313 992.4 314.16L976.1 331.34Q975 332.5 973.72 333.46L964.28 340.54Q963 341.5 961.57 342.22L948.43 348.78Q947 349.5 945.43 349.81L928.57 353.19Q927 353.5 927.42 351.96L931.08 338.54Q931.5 337 932.28 335.61L948.72 306.39Q949.5 305 950.56 303.8L970.94 280.7Q972 279.5 973.36 278.66L983.64 272.34Q985 271.5 986.6 271.5ZM1684.25 426.99L1672.25 436.51Q1671 437.5 1669.59 438.26L1646.41 450.74Q1645 451.5 1643.45 451.89L1614.55 459.11Q1613 459.5 1611.4 459.5L1601.44 459.5Q1601 459.5 1600.86 459.08L1600.64 458.42Q1600.5 458 1600.93 457.89L1608.45 455.91Q1610 455.5 1611.39 454.72L1624.61 447.28Q1626 446.5 1627.13 445.37L1648.37 424.13Q1649.5 423 1650.37 421.66L1672.63 387.34Q1673.5 386 1674.28 384.6L1724.72 294.4Q1725.5 293 1726.42 291.69L1738.58 274.31Q1739.5 273 1740.63 271.87L1750.87 261.63Q1752 260.5 1753.39 259.72L1766.61 252.28Q1768 251.5 1769.52 251.01L1788.48 244.99Q1790 244.5 1791.59 244.36L1811.41 242.64Q1813 242.5 1811.91 243.67L1799.59 256.83Q1798.5 258 1797.6 259.32L1784.4 278.68Q1783.5 280 1782.73 281.4L1746.27 347.6Q1745.5 349 1744.64 350.35L1727.36 377.65Q1726.5 379 1725.54 380.28L1712.46 397.72Q1711.5 399 1710.39 400.15L1686.61 424.85Q1685.5 426 1684.25 426.99ZM1323.37 174.32L1325.63 175.68Q1327 176.5 1328.55 176.89L1341.45 180.11Q1343 180.5 1344.6 180.42L1360.4 179.58Q1362 179.5 1363.45 178.82L1375.55 173.18Q1377 172.5 1378.06 171.3L1384.61 163.94Q1385 163.5 1385.42 163.92L1386.08 164.58Q1386.5 165 1386.45 165.59L1384.63 187.41Q1384.5 189 1383.78 190.43L1381.22 195.57Q1380.5 197 1379.16 197.87L1370.34 203.63Q1369 204.5 1367.42 204.74L1357.58 206.26Q1356 206.5 1354.42 206.24L1345.58 204.76Q1344 204.5 1342.68 203.6L1335.82 198.9Q1334.5 198 1333.99 196.48L1332.51 192.02Q1332 190.5 1330.4 190.5L1300.59 190.5Q1300 190.5 1299.58 190.92L1298.92 191.58Q1298.5 192 1298.63 192.58L1301.14 203.44Q1301.5 205 1302.29 206.39L1304.71 210.61Q1305.5 212 1306.63 213.13L1314.87 221.37Q1316 222.5 1317.4 223.28L1323.6 226.72Q1325 227.5 1326.55 227.91L1342.45 232.09Q1344 232.5 1345.6 232.5L1363.4 232.5Q1365 232.5 1366.58 232.24L1375.42 230.76Q1377 230.5 1378.48 229.89L1397.52 222.11Q1399 221.5 1400.13 220.37L1410.37 210.13Q1411.5 209 1412.29 207.61L1414.71 203.39Q1415.5 202 1415.94 200.46L1419.06 189.54Q1419.5 188 1419.49 186.4L1419.01 56.1Q1419 54.5 1417.4 54.5L1388.6 54.5Q1387 54.5 1386.94 56.1L1386.52 67.41Q1386.5 68 1386.08 68.42L1385.42 69.08Q1385 69.5 1384.6 69.06L1377.07 60.69Q1376 59.5 1374.6 58.72L1368.4 55.28Q1367 54.5 1365.47 54.04L1358.53 51.96Q1357 51.5 1355.4 51.5L1345.6 51.5Q1344 51.5 1342.48 52.01L1327.52 56.99Q1326 57.5 1324.64 58.35L1319.36 61.65Q1318 62.5 1316.87 63.63L1309.63 70.87Q1308.5 72 1307.72 73.39L1300.28 86.61Q1299.5 88 1299.03 89.53L1295.97 99.47Q1295.5 101 1295.5 102.6L1295.5 132.4Q1295.5 134 1296.03 135.51L1300.97 149.49Q1301.5 151 1302.32 152.37L1306.68 159.63Q1307.5 161 1308.71 162.04L1320.79 172.46Q1322 173.5 1323.37 174.32ZM1116.82 152.13L1119.68 147.37Q1120.5 146 1120.46 144.4L1120.04 126.1Q1120 124.5 1118.43 124.82L1082.57 132.18Q1081 132.5 1079.73 133.47L1073.7 138.08Q1072.5 139 1071.94 140.4L1071.06 142.6Q1070.5 144 1070.5 145.51L1070.5 149.75Q1070.5 151 1071.06 152.12L1071.94 153.88Q1072.5 155 1073.39 155.89L1075.87 158.37Q1077 159.5 1078.47 160.13L1082.53 161.87Q1084 162.5 1085.6 162.5L1099.4 162.5Q1101 162.5 1102.46 161.85L1108.54 159.15Q1110 158.5 1111.23 157.48L1114.77 154.52Q1116 153.5 1116.82 152.13ZM678.55 149.6L679.48 181.18Q679.5 182 678.8 182.42L677.7 183.08Q677 183.5 676.18 183.5L647.82 183.5Q647 183.5 646.3 183.08L645.2 182.42Q644.5 182 644.5 181.18L644.99 56.1Q645 54.5 646.6 54.5L677.41 54.5Q678 54.5 678.42 54.92L679.08 55.58Q679.5 56 679.49 56.59L678.52 146.4Q678.5 148 678.55 149.6ZM594.51 316.98L596.99 309.52Q597.5 308 597.5 306.4L597.5 287.6Q597.5 286 596.94 284.5L595.06 279.5Q594.5 278 593.28 276.97L589.22 273.53Q588 272.5 586.41 272.29L574.59 270.71Q573 270.5 571.5 271.05L563.5 273.95Q562 274.5 560.64 275.35L555.36 278.65Q554 279.5 552.87 280.63L537.63 295.87Q536.5 297 535.59 298.31L514.41 328.69Q513.5 330 512.83 331.45L495.17 369.55Q494.5 371 494.06 372.54L490.94 383.46Q490.5 385 490.43 386.6L489.57 407.4Q489.5 409 490.14 410.46L494.36 420.04Q495 421.5 496.46 422.15L502.54 424.85Q504 425.5 505.6 425.5L513.4 425.5Q515 425.5 516.46 424.84L524.54 421.16Q526 420.5 527.23 419.48L542.27 407.02Q543.5 406 544.52 404.77L557.48 389.23Q558.5 388 559.38 386.66L574.62 363.34Q575.5 362 576.2 360.56L588.8 334.44Q589.5 333 589.97 331.47L593.53 320.03Q594 318.5 594.51 316.98ZM872.35 170.65L901.15 124.85Q902 123.5 902.85 124.86L938.15 181.14Q939 182.5 940.6 182.54L978.41 183.49Q979 183.5 979.42 183.08L980.08 182.42Q980.5 182 980.17 181.5L925.38 98.34Q924.5 97 925.01 95.48L925.99 92.52Q926.5 91 927.36 89.65L979.14 8.85Q980 7.5 978.4 7.5L940.6 7.5Q939 7.5 938.16 8.86L902.84 66.14Q902 67.5 901.18 66.13L866.82 8.87Q866 7.5 864.4 7.52L826.1 7.98Q824.5 8 825.35 9.35L878.88 94.02Q879.5 95 879.22 96.12L878.78 97.88Q878.5 99 877.87 99.97L824.82 181.5Q824.5 182 824.92 182.42L825.58 183.08Q826 183.5 826.59 183.49L864.4 182.54Q866 182.5 866.74 181.08L870.76 173.42Q871.5 172 872.35 170.65ZM1202.49 108.6L1202.01 180.9Q1202 182.5 1200.4 182.55L1170.59 183.48Q1170 183.5 1169.58 183.08L1168.92 182.42Q1168.5 182 1168.5 181.41L1168.5 56.59Q1168.5 56 1168.92 55.58L1169.58 54.92Q1170 54.5 1170.59 54.5L1200.4 54.5Q1202 54.5 1202.06 56.1L1202.48 68.41Q1202.5 69 1202.92 69.42L1203.58 70.08Q1204 70.5 1204.44 70.1L1216.83 58.59Q1218 57.5 1219.51 56.97L1233.49 52.03Q1235 51.5 1236.6 51.5L1247.4 51.5Q1249 51.5 1250.52 52.01L1262.48 55.99Q1264 56.5 1265.33 57.39L1271.67 61.61Q1273 62.5 1274.05 63.71L1278.45 68.79Q1279.5 70 1280.13 71.47L1284.87 82.53Q1285.5 84 1285.52 85.6L1286.49 181.18Q1286.5 182 1285.8 182.42L1284.7 183.08Q1284 183.5 1283.18 183.5L1254.59 183.5Q1254 183.5 1253.58 183.08L1252.92 182.42Q1252.5 182 1252.5 181.41L1252.5 103.6Q1252.5 102 1252.08 100.46L1249.92 92.54Q1249.5 91 1248.45 89.79L1244.05 84.71Q1243 83.5 1241.53 82.87L1237.47 81.13Q1236 80.5 1234.4 80.5L1225.6 80.5Q1224 80.5 1222.54 81.15L1216.46 83.85Q1215 84.5 1213.93 85.69L1207.57 92.81Q1206.5 94 1206.03 95.53L1202.97 105.47Q1202.5 107 1202.49 108.6ZM253.22 361.57L261.78 344.43Q262.5 343 262.91 341.45L271.09 310.55Q271.5 309 271.62 307.4L277.38 233.6Q277.5 232 277.73 230.42L283.27 192.58Q283.5 191 283.95 189.47L291.05 165.53Q291.5 164 292.19 162.56L300.81 144.44Q301.5 143 302.42 141.69L307.58 134.31Q308.5 133 309.63 131.87L319.87 121.63Q321 120.5 322.37 119.68L329.63 115.32Q331 114.5 332.55 114.09L344.45 110.91Q346 110.5 347.59 110.67L363.75 112.37Q365 112.5 366.12 113.06L367.88 113.94Q369 114.5 369.81 115.46L378.47 125.77Q379.5 127 380.01 128.52L381.99 134.48Q382.5 136 382.5 137.6L382.5 148.4Q382.5 150 382.11 151.55L379.89 160.45Q379.5 162 378.73 163.4L374.27 171.6Q373.5 173 372.37 174.13L361.63 184.87Q360.5 186 362.03 186.47L373.47 190.03Q375 190.5 376.59 190.33L392.41 188.67Q394 188.5 395.54 188.06L399.46 186.94Q401 186.5 402.37 185.68L414.63 178.32Q416 177.5 417.05 176.29L421.45 171.21Q422.5 170 423.09 168.51L425.91 161.49Q426.5 160 426.5 158.4L426.5 138.6Q426.5 137 425.78 135.57L422.22 128.43Q421.5 127 420.37 125.87L412.13 117.63Q411 116.5 409.6 115.73L401.4 111.27Q400 110.5 398.47 110.03L388.53 106.97Q387 106.5 385.4 106.47L338.6 105.53Q337 105.5 335.45 105.91L308.55 113.09Q307 113.5 305.56 114.19L285.44 123.81Q284 124.5 282.68 125.41L272.32 132.59Q271 133.5 269.87 134.63L259.63 144.87Q258.5 146 257.61 147.33L241.39 171.67Q240.5 173 239.94 174.5L228.06 206.5Q227.5 208 227.2 209.57L221.8 237.43Q221.5 239 221.36 240.59L214.64 317.41Q214.5 319 214.09 320.55L203.91 359.45Q203.5 361 202.88 362.47L196.12 378.53Q195.5 380 194.63 381.35L187.37 392.65Q186.5 394 185.4 395.16L171.1 410.34Q170 411.5 168.65 412.37L157.35 419.63Q156 420.5 154.47 420.97L134.53 427.03Q133 427.5 131.4 427.56L105.6 428.44Q104 428.5 102.44 428.13L84.56 423.87Q83 423.5 81.6 422.72L66.4 414.28Q65 413.5 63.87 412.37L57.63 406.13Q56.5 405 55.72 403.61L48.28 390.39Q47.5 389 47.29 387.41L44.71 367.59Q44.5 366 45.01 364.48L46.99 358.52Q47.5 357 48.63 355.87L50.87 353.63Q52 352.5 53.56 352.14L63.44 349.86Q65 349.5 66.07 348.31L73.43 340.19Q74.5 339 74.5 337.4L74.5 323.6Q74.5 322 73.94 320.5L72.06 315.5Q71.5 314 70.37 312.87L66.13 308.63Q65 307.5 63.57 306.78L60.43 305.22Q59 304.5 57.4 304.41L42.6 303.59Q41 303.5 39.53 304.13L28.47 308.87Q27 309.5 25.91 310.67L14.59 322.83Q13.5 324 12.97 325.51L8.03 339.49Q7.5 341 7.41 342.6L6.59 357.4Q6.5 359 6.86 360.56L9.14 370.44Q9.5 372 10.24 373.42L19.76 391.58Q20.5 393 21.58 394.18L29.92 403.32Q31 404.5 32.27 405.48L42.73 413.52Q44 414.5 45.46 415.16L64.54 423.84Q66 424.5 67.55 424.89L88.45 430.11Q90 430.5 91.59 430.67L107.41 432.33Q109 432.5 110.6 432.42L146.4 430.58Q148 430.5 149.58 430.22L163.42 427.78Q165 427.5 166.52 426.99L187.48 420.01Q189 419.5 190.4 418.73L207.6 409.27Q209 408.5 210.27 407.53L224.73 396.47Q226 395.5 227.13 394.37L238.37 383.13Q239.5 382 240.4 380.68L251.6 364.32Q252.5 363 253.22 361.57ZM520.33 12.37L550.88 62.97Q551.5 64 552.48 64.7L554.02 65.8Q555 66.5 555.61 65.46L589.18 8.88Q590 7.5 591.6 7.52L629.9 7.98Q631.5 8 630.63 9.35L578.37 90.65Q577.5 92 577.24 93.58L576.76 96.42Q576.5 98 577.39 99.33L632.11 181.17Q633 182.5 631.4 182.5L592.6 182.5Q591 182.5 590.16 181.14L555.3 124.98Q555 124.5 554.44 124.5L553.56 124.5Q553 124.5 552.67 124.95L548.45 130.71Q547.5 132 546.67 133.37L517.83 181.13Q517 182.5 515.4 182.54L478.59 183.48Q478 183.5 477.58 183.08L476.92 182.42Q476.5 182 476.83 181.5L530.89 98.94Q531.5 98 531.5 96.88L531.5 95.12Q531.5 94 530.89 93.06L476.37 9.34Q475.5 8 477.1 7.94L514.4 6.56Q516 6.5 516.98 7.76L518.52 9.74Q519.5 11 520.33 12.37ZM995.1 183.02L1025.01 183.48Q1026 183.5 1026.7 182.8L1027.8 181.7Q1028.5 181 1028.49 180.01L1027.02 56.1Q1027 54.5 1025.4 54.5L994.59 54.5Q994 54.5 993.58 54.92L992.92 55.58Q992.5 56 992.5 56.59L993.49 181.4Q993.5 183 995.1 183.02ZM1382.24 136.91L1380.26 140.59Q1379.5 142 1378.37 143.13L1373.13 148.37Q1372 149.5 1370.57 150.22L1367.43 151.78Q1366 152.5 1364.4 152.5L1351.6 152.5Q1350 152.5 1348.65 151.65L1337.85 144.85Q1336.5 144 1335.61 142.67L1333.39 139.33Q1332.5 138 1332.03 136.47L1328.97 126.53Q1328.5 125 1328.5 123.4L1328.5 112.6Q1328.5 111 1328.95 109.47L1333.05 95.53Q1333.5 94 1334.57 92.81L1340.93 85.69Q1342 84.5 1343.5 83.95L1351.5 81.05Q1353 80.5 1354.6 80.5L1362.4 80.5Q1364 80.5 1365.49 81.09L1372.51 83.91Q1374 84.5 1375.13 85.63L1377.37 87.87Q1378.5 89 1379.39 90.33L1381.61 93.67Q1382.5 95 1382.97 96.53L1386.03 106.47Q1386.5 108 1386.5 109.6L1386.5 123.4Q1386.5 125 1385.99 126.52L1383.51 133.98Q1383 135.5 1382.24 136.91ZM1007.6 41.46L1025.9 41.04Q1027.5 41 1027.48 39.4L1027.02 9.1Q1027 7.5 1025.4 7.52L994.1 7.98Q992.5 8 992.5 9.6L992.5 39.41Q992.5 40 992.92 40.42L993.58 41.08Q994 41.5 994.59 41.5L1004.4 41.5Q1006 41.5 1007.6 41.46ZM656.4 41.44L646.1 41.06Q644.5 41 644.5 39.4L644.5 9.6Q644.5 8 646.1 7.93L677.41 6.53Q678 6.5 678.42 6.92L679.08 7.58Q679.5 8 679.5 8.59L679.5 39.41Q679.5 40 679.08 40.42L678.42 41.08Q678 41.5 677.41 41.5L659.6 41.5Q658 41.5 656.4 41.44Z" shape-rendering="geometricPrecision" fill="url(#metal)" fill-rule="evenodd"/>
</svg>
